<svg width="20" height="20" viewBox="0 0 20 20" fill="none" xmlns="http://www.w3.org/2000/svg">
<path d="M9.60862 6.38281C9.60862 6.38281 8.58944 8.38116 8.09873 10.9125C7.60801 13.4438 7.72125 16.9521 7.72125 16.9521" stroke="#2C2A29" stroke-width="1.3" stroke-linecap="round" stroke-linejoin="round"/>
<path d="M14.6614 10.0734C14.4591 10.0312 13.2014 9.40007 12.2872 8.79757C10.9408 7.91014 10.2941 7.43716 10.0646 7.10499C9.80787 6.73129 9.98604 6.24133 10.4345 6.17338C11.5821 5.99265 12.7556 6.25146 13.7208 6.89813C15.0502 7.78066 15.3114 8.87609 15.3288 9.54573C15.3379 9.90509 15.0125 10.1467 14.6614 10.0734Z" stroke="#2C2A29" stroke-width="1.3" stroke-linecap="round" stroke-linejoin="round"/>
<path d="M9.28444 6.14629C9.38817 6.20739 9.56555 6.31436 9.50447 6.41811C8.72548 7.74147 4.42485 8.68216 4.42485 8.68216C4.35568 8.67637 4.28889 8.65412 4.2284 8.62007C4.16792 8.58602 4.11515 8.53979 4.07343 8.48431C4.03172 8.42883 4.00196 8.36531 3.98604 8.29775C3.97012 8.23018 3.96838 8.16006 3.98094 8.09179C4.08889 7.46518 4.51393 6.40222 6.12348 5.93415C7.7519 5.46155 8.79524 5.85714 9.28444 6.14629Z" stroke="#2C2A29" stroke-width="1.3" stroke-linecap="round" stroke-linejoin="round"/>
<path d="M11.4948 3.36357C10.5511 3.74104 9.60742 5.62841 9.60742 6.38335L14.5146 4.11851C13.9937 3.2156 12.4385 2.98609 11.4948 3.36357Z" stroke="#2C2A29" stroke-width="1.3" stroke-linecap="round" stroke-linejoin="round"/>
<path d="M8.85286 2.98601C10.3628 3.52203 10.1287 5.48036 9.60781 6.38328L5.07812 3.33329C5.4556 2.60854 7.34297 2.45 8.85286 2.98601Z" stroke="#2C2A29" stroke-width="1.3" stroke-linecap="round" stroke-linejoin="round"/>
<path d="M11.1192 14.3105C14.2462 14.3105 16.0264 14.9862 16.0264 15.8204C16.0264 16.6547 13.4912 17.3303 10.3643 17.3303C7.23726 17.3303 4.70215 16.6547 4.70215 15.8204C4.70215 15.6166 4.85314 15.4226 5.12718 15.2459" stroke="#2C2A29" stroke-width="1.3" stroke-linecap="round" stroke-linejoin="round"/>
</svg>
