<svg width="795" height="619" viewBox="0 0 795 619" fill="none" xmlns="http://www.w3.org/2000/svg">
<g clip-path="url(#clip0_3645_147678)">
<path d="M53.31 497.07C54.7 498.18 53.05 497.89 53.08 497.76C53.47 496.24 56.38 497.37 55.97 499.07C60.78 498.7 66.45 501.679 70.74 504.219C101.47 522.429 101.78 570.51 71.29 589.14C66.95 591.79 61.78 594.589 56.63 594.359C56.73 595.159 55.84 595.609 53.96 595.689C52.36 596.119 50.58 596.339 48.63 596.359C48.3 596.939 47.88 597.56 47.2 597.76C45.81 598.16 36.63 597.96 34.78 597.7L33.3 596.359C19.5 595.019 5.24998 586.139 -0.0200195 573.039V520.4C7.88998 510.21 16.53 502.229 29.31 498.749C37.37 496.559 45.02 497.039 53.29 497.079L53.31 497.07Z" fill="#F8B836"/>
<path d="M183.92 586.35C186.55 586.63 187.77 593.19 187.85 595.24C193.95 594.39 199.75 594.76 205.24 596.34C214.24 594.49 223.51 594.75 232.63 595.33L233.17 587.18L234.56 586.35C236.9 584.73 243.6 583.92 245.89 585.68C247.39 586 248.81 587.03 250.14 588.78C256.46 592.4 264.48 594.39 271.72 594.99L273.88 596.34C276.8 595.75 279.75 595.16 282.74 595.13C297.48 594.98 312.27 594.92 327.01 595.02C328.48 595.02 329.96 595.23 331.44 595.45C332.92 595.67 334.4 595.99 335.86 596.34C347.1 595.71 358.36 595.1 369.62 595.06L538.03 594.89C539.32 592.53 542.02 591.2 546.12 590.92C549.29 589.78 552.56 588.2 554.22 585.21L555.76 585.01C557.35 584.11 559.46 584.26 562.08 585.46C564.32 585.39 565.99 585.91 567.09 587.01C568.32 589.1 568.8 591.69 568.54 594.77C571.74 594.82 574.9 595.04 578.02 595.42L579.09 596.35L580.07 595.21C588.2 595.93 596.44 596.03 604.79 595.53L607.06 586.94C607.89 583.55 615.76 583.21 617.74 585.02L619.67 585.13C621.61 588.22 622.52 591.97 622.67 595.61L658.7 595.71C660.57 595.01 661.8 595.22 662.39 596.35C667.93 596.35 673.51 596.35 679.05 596.35C692.31 594.57 706.12 594.13 719.27 596.42L753.69 596.35C753.81 595.75 754.04 595.78 754.36 596.35C767.9 596.18 781.47 596.47 795.01 596.35V599.02H0V596.35C11.09 594.69 22.23 594.71 33.32 596.35C38.94 596.34 42.94 596.91 48.65 596.35C52.01 595.79 55.38 596.12 58.65 597.02L60.93 596.21C94.8 596.97 128.7 597.02 162.6 596.35C162.67 595.74 162.9 595.77 163.27 596.35L164.05 595C168.82 596.35 171.03 594.44 170.68 589.27C170.98 586.35 172.07 584.71 173.93 584.35C176.18 583.43 183.27 583.59 183.93 586.35H183.92Z" fill="#2D3B5B"/>
<path d="M379.84 397.121C380.2 397.471 380.46 397.771 380.39 397.911C378.35 402.021 375.29 403.091 379.52 399.121C379.69 398.961 380.07 399.011 380.51 399.121L454.81 470.401L534.44 395.121L536.21 394.891C542.24 400.731 547.11 396.701 551.91 391.781C553.17 391.391 553.72 392.111 554.41 393.091L553.73 448.571C555.6 448.971 556.49 449.811 556.43 451.091L555.65 452.481C556.69 458.991 557.5 466.801 555.1 473.081L554.19 475.741L455.65 566.811C454.84 567.611 453.84 567.561 452.89 567.041L342.95 463.641C310.29 494.351 278.23 525.231 246.79 556.281C246.69 557.521 246.17 558.221 245.23 558.371L243.88 557.811C242.88 538.271 242.46 518.401 242.62 498.201L243.9 495.061C244.36 494.291 244.99 493.711 245.8 493.341C257.76 492.361 269.22 490.271 280.18 487.071L281.88 485.071L281.26 483.741C281.91 476.221 281.79 462.691 275.65 457.281L275.22 455.751C272.53 455.611 269.72 455.881 266.8 456.581L256.68 458.151C255.35 456.781 254.46 454.781 253.99 452.141C252.74 451.531 251.6 450.961 250.57 450.421C249.99 450.231 250 450.011 250.57 449.751L341.62 363.841C342.1 363.761 348.26 369.251 349.2 370.111C357.94 378.041 368.11 390.181 377.16 396.811C378.23 397.601 378.52 398.131 379.85 397.101L379.84 397.121Z" fill="#A98BE5"/>
<path d="M198.58 333.82L200.05 334.74C202.56 341.52 207.65 346.59 215.31 349.96C216.76 352.04 217.63 352.66 217.9 351.81C218.97 353.28 220.64 355.22 222.56 353.81C224.75 354.44 226.75 355.33 228.56 356.48C229.83 356.74 231.31 357.29 231.89 358.48C235.88 355.3 234.22 350.61 232.15 346.27L228.05 338.14L228.56 336.5C233.87 338.94 236.73 344.42 238.23 349.82C241.29 360.85 236.62 366.43 250.69 360.29C262.93 354.95 274.16 347.61 286.53 342.49C288.85 342.42 293.23 348.74 291.19 350.49C291.46 352.53 286.78 356.7 285.2 358.16C281.28 361.79 275.78 365.83 271.41 369.02C263.01 375.16 254.23 381.34 244.16 384.43C244.66 401.98 247.74 419.32 249.2 436.78C249.42 439.36 248.54 441.49 248.54 443.11C248.34 445.28 246.54 446.95 243.15 448.12C243.62 450.91 243.2 452.79 241.88 453.77L242.36 456.25C244.02 457.09 244.49 459.03 242.54 459.77C242.91 460.51 243.26 461.26 243.51 462.04C244.87 466.17 245.76 488.57 244.7 492.74C244.5 493.54 244.2 494.32 243.87 495.09C244.22 509.08 242.93 523.93 244.53 538.07L245.2 558.39C245.71 558.88 246.29 559.44 246.42 560.17C247 563.32 247.97 581.58 247.36 584.02C247.18 584.75 246.48 585.26 245.87 585.71C242.27 586.11 238.15 586.86 234.54 586.38C233.77 588.4 231.55 586.97 230.46 585.6C229.37 584.23 226.21 576.22 227.87 575.05C227.32 574.51 226.79 573.96 226.33 573.35C225.87 572.74 225.44 572.15 225.23 571.49C221.25 559.07 218.41 546.9 215.95 534.12C215.82 533.44 215.92 532.71 216.02 531.96C216.12 531.21 216.32 530.47 216.54 529.74C217.88 528.27 218.61 526.01 218.74 522.96C225.32 500.12 231.85 477.25 238.34 454.35C239.59 451.31 239.28 448.9 237.41 447.09C237.57 444.46 237.05 442.46 235.86 441.12C234.92 439.88 236 439.03 237.06 438.33C237.43 421.1 237.29 402.16 235.81 384.22C235.98 385.46 235.77 385.33 235.19 383.82C234.18 383.72 233.07 383.5 231.86 383.15C231.64 383.73 231.42 383.73 231.19 383.15L228.52 382.48C228.3 383.06 228.08 383.06 227.85 382.48C227.35 382.72 226.84 382.93 226.3 383.06C225.76 383.19 225.28 383.29 224.84 383.19C213.94 380.85 204.01 377.28 194.03 372.49C201.77 379.66 210.63 385.26 220.61 389.29C224.83 390.83 227.03 393.12 227.19 396.14C227.74 401.39 227.72 407.48 227.19 412.8C227.09 415.02 226.87 417.35 226.52 419.8L227.79 420.65C227.26 424.4 227.18 428.14 227.54 431.86L226.52 433.13C226.31 435.68 225.9 438.24 225.29 440.82L231.06 440.33L231.85 441.8C232.46 443.04 231.5 443.52 230.41 443.71C226.7 465.39 222.09 487.1 216.57 508.83C216.65 511.89 215.97 514.2 214.53 515.76C206.49 538.79 197.15 562.03 187.79 584.92C187.45 585.74 184.72 587.71 183.87 586.39C181.19 585.21 176.35 585.86 173.87 584.39C172.12 585.85 170.38 582.37 170.57 580.77C172.65 563.44 175.15 546.14 178.05 528.92C178.26 527.7 178.66 526.5 179.07 525.3C179.48 524.1 180 522.92 180.53 521.75C181.21 517.4 182.55 513.11 183.1 508.66C185.55 488.8 184.25 468.82 183.9 448.86C178.08 447.74 178.84 445.47 179.28 440.21C180.75 422.61 185.41 410.22 184.55 390.79C183.47 366.14 172.74 348.35 198.52 333.85L198.58 333.82Z" fill="#4C1BCB"/>
<path d="M299.87 335.151L263.57 335.131C261.11 334.671 259.89 331.651 259.89 329.481V196.551H346.19C348.56 196.551 348.15 240.151 349.86 243.851C349.53 244.181 343.2 243.521 343.2 243.851V274.501C340.3 273.951 335.43 275.891 333.87 273.171L332.68 270.451C332.43 266.271 331.83 246.521 332.92 244.501C333.17 244.031 333.51 243.601 333.87 243.191C332.77 245.371 324.5 245.281 323.21 243.191L324.54 243.811V273.711L323.21 274.511C321.89 276.671 313.72 276.861 313.21 273.841L311.88 273.221V226.681L313.21 225.871L312.45 227.201C310.25 227.581 303.49 227.801 302.55 225.871C303.23 227.081 303.85 228.371 303.97 229.771C304.69 238.401 304.19 250.381 303.76 259.241C303.69 260.631 303.14 261.941 302.55 263.181C302.8 267.221 303.02 271.281 303.2 275.351C302.68 276.181 293.58 276.411 292.55 274.511C292.03 274.451 291.27 274.291 291.22 273.911C290.82 270.951 290.78 259.711 291.22 256.831L292.55 255.861C291.45 258.041 283.18 257.951 281.89 255.861C282.41 255.921 283.19 256.091 283.22 256.461C283.43 258.641 283.62 272.151 283.22 273.541L281.89 274.511C282.54 277.321 275.61 276.851 277.89 274.181L276.56 273.721V211.361L277.89 210.551C277.65 212.401 275.79 212.211 275.22 210.551L276.55 211.011V276.371L275.22 277.181L276.9 276.391C287.78 276.801 298.64 276.611 309.49 275.811C324.83 276.431 340.18 276.611 355.54 276.331L357.86 277.171L366.53 277.841C366.5 284.021 362.46 289.241 361.2 295.161L357.44 296.391L332.54 296.491C332.48 296.491 332.5 297.601 332.54 297.641C332.87 297.911 339.94 298.431 341.11 298.491C353.08 299.141 365.21 299.241 377.2 298.631L379.19 299.821H384.52C385.23 300.451 382.24 304.391 381.86 305.151L381.24 306.481H332.55C332.86 307.981 332.41 308.871 331.22 309.151L380.53 309.821L368.87 335.131H307.23C307.1 335.131 307.34 332.921 307.23 332.461C305.92 332.031 305.34 332.821 304.57 333.131C304.69 335.181 301.31 336.641 299.91 335.131L299.87 335.151Z" fill="#F7F8FD"/>
<path d="M593.08 332.49L600.39 334.18L617.69 318.07L593.75 291.85L715.7 276.52L695.71 398.45L666.15 369.18L614.38 418.07L613.75 423.11C612.62 423.68 612.08 423.41 611.86 422.23C610.22 413.73 607.95 393.22 609.1 385.2C609.47 382.61 609.6 382.46 611.87 382.53L619.81 390.4C627.66 397.48 632.9 389.81 637.07 383.06C639.84 378.57 652.33 352.07 650.99 348C650.14 347.41 649.9 346.93 650.41 345.82L650.93 344.52C655.56 343.54 661.15 340.74 662.91 336.11C661.06 337.12 653.24 340.74 651.65 339.77C649.48 336.1 647.73 340.23 647.08 343.13L645.75 343.82C639.93 352.12 634.12 360.59 628.31 369.23C626.13 371.39 624.57 369.03 623.51 366.96L613.19 347.59C609.19 338.55 602.43 336.31 593.6 334.05L593.1 332.5L593.08 332.49Z" fill="#A98BE5"/>
<path d="M424.49 267.19L440.48 269.52L371.85 359.14L398.51 290.85L371.85 289.17L388.5 242.54L355.81 239.43L371.84 158.58H435.15C433.21 165.28 428.51 171.35 425.82 177.9H463.13C463.5 179.16 462.6 179.02 462.47 179.24L460.45 180.5C449.03 180.32 437.6 180.12 426.19 179.91L418.96 195.21L417.16 195.9L417.48 197.31C414.89 201.45 412.66 205.76 410.81 210.26L445.49 210.58C446.45 211.07 446.76 211.95 446.71 212.99L414.97 265.17C414.99 265.63 421.35 265.94 422.61 265.89L424.49 267.2V267.19Z" fill="#D032E4"/>
<path d="M161.93 489.741C163.89 491.331 163.85 498.311 161.93 499.411C161.05 499.911 159.4 499.621 159.26 499.741C159.12 499.861 159.94 502.441 159.97 503.371C160.23 510.361 158.39 509.901 151.93 509.731C151.69 512.801 152.91 515.391 151.93 518.391H163.59C166.45 518.391 166.45 525.401 165.83 527.291C165.14 529.391 158.55 527.981 156.59 528.391C157.44 530.261 158.05 537.671 156.17 538.291C155.11 538.631 152.14 538.171 151.93 538.381C151.6 538.701 151.5 546.241 151.49 547.531C151.49 548.051 151.94 548.331 151.94 548.381C153.45 550.801 153.57 553.601 153.09 556.361C162.51 553.951 163.98 563.851 158.49 568.881L158.64 574.791C158.69 578.491 153.74 580.751 151.94 577.701C154.14 578.231 153.97 586.111 151.94 587.031C152.92 584.851 161.1 584.951 162.27 587.031C165.32 585.001 165.66 595.491 163.27 596.361C163.05 596.381 162.82 596.341 162.6 596.361C144.72 597.011 126.86 597.181 109.01 596.871L102.86 587.601C99.63 588.441 98.3999 587.091 96.5299 584.831C92.0799 579.461 91.1299 575.481 99.7699 576.321C103.74 578.321 103.21 576.321 98.1699 570.331C95.5599 565.641 100.61 565.511 104.14 565.621L100.61 559.991C97.04 557.291 95.94 553.201 97.3 547.731C95.18 546.901 94.8299 539.641 96.6299 538.401C96.9299 535.711 103.8 536.921 102.62 539.581L102.58 553.641C102.51 554.571 102.75 555.271 103.29 555.731C102.95 555.651 102.68 555.561 102.65 555.421C102.13 552.971 102.46 542.831 102.62 539.851C102.62 539.691 102.92 539.551 103.28 539.411C101.97 536.431 100.13 533.481 97.7699 530.571C96.8099 528.931 97.2799 527.401 99.2099 527.091H110.84C108.89 521.501 105.51 519.241 100.71 520.291C97.4899 518.221 94.84 515.121 92.79 510.991L89.44 509.851C86.89 511.231 83.95 511.201 80.62 509.771L78.8 509.951C74.37 506.271 69.4 503.291 64.23 500.821L63.9599 499.771C63.9399 499.251 64.05 498.451 64.37 498.421C72.55 497.731 81.67 497.841 89.82 498.191C92.24 497.411 97.25 496.971 98.5999 499.101C99.7699 500.831 99.66 506.421 98.5999 508.431C98.8099 506.661 99.43 506.741 99.93 508.431C98.76 506.701 98.8699 501.111 99.93 499.101C100.69 496.801 108.35 497.191 109.93 499.101C107.52 498.281 103.65 493.171 104.41 491.401C90.26 491.981 76.01 492.401 61.95 490.441L62.4 489.101C94.22 488.891 126.07 488.681 157.97 488.461C158.69 489.341 160 489.771 161.9 489.771L161.93 489.741Z" fill="#FAB94D"/>
<path d="M460.47 189.23C459.65 191.27 457.98 193.06 455.46 194.59L523.65 195.22L524.45 196.56C525.05 196.68 525.02 196.91 524.45 197.23C526.38 199.18 526.34 201.93 524.45 203.89L523.72 255.8L489.8 263.87C489.3 267.24 494.05 266.83 495.13 269.86L491.96 270.98C477.46 271.26 463.03 271.22 448.67 270.84L447.15 269.87C447.25 268.22 447.2 267.66 445.45 267.23C439.34 265.72 431.44 265.24 425.16 264.54L428.49 267.19C427.16 267.23 425.82 267.17 424.49 267.19C421.03 267.27 417.58 267.15 414.17 266.5C413.34 266.34 412.96 266.99 413.17 265.54L445.81 211.89L409.81 211.58C408.91 210.91 409.24 210.69 409.45 209.87C410.07 207.44 414.49 200.02 415.99 197.04C416.35 196.34 417.1 196.02 417.16 195.9L418.38 194.59H445.91L450.24 190.88L451.82 191.24C454.94 188.57 457.59 183.85 460.48 189.24L460.47 189.23Z" fill="#F7F9FD"/>
<path d="M460.47 275.19L462.87 273.83L489.38 273.28C494.97 272.66 499.99 273.3 504.46 275.19C505.33 275.27 506.24 275 507.06 275.56C509.52 277.95 522.97 283.37 523.66 285.65C524.24 287.6 522.97 290.24 524.45 291.85L525.3 294.8C525.95 306.56 526.01 318.47 525.73 330.28C525.65 333.78 520.35 338.13 517.79 335.16L436.17 335.14C433.35 334.61 430.57 327.68 427.5 326.49C427.01 329.29 429.65 332.48 430.49 335.16H399.17C403.06 327.11 408.95 320.2 413.5 312.51H417.16C417.04 314.08 415.68 316.9 414.49 317.83L415.11 316.5H464.33L465.14 317.83C463.97 317.59 463.48 316.48 463.65 314.5L421.23 314.53C419.63 314.29 417.37 313.72 417.82 311.84C417.8 311.42 417.08 310.61 417.16 309.55C417.28 308.03 418.19 307.82 418.48 307.18L419.74 305.84L505.34 305.5L505.57 303.9C478.6 303.83 451.62 303.81 424.63 303.84L423.81 302.51C420.7 301.44 424.19 296.79 426.48 296.51L427.73 295.18H504.67C504.82 293.57 505.41 292.46 506.45 291.85L430.49 291.18C431.54 288.73 433.33 286.09 435.82 285.85C438.83 284.17 442.31 283.53 446.24 283.93C465.94 284.61 485.54 284.77 505.03 284.41L505.15 281.83H452.86C448.66 282.34 444.38 282.3 440.04 281.7L439.15 280.52C437.73 279.36 440.6 275.62 441.61 275.32C444.68 274.39 456.3 275.22 460.47 275.19Z" fill="#F7F9FD"/>
<path d="M593.08 332.489C596.21 333.479 603.78 335.699 606.21 337.019C613.78 341.119 624.13 367.949 626.74 369.139L643.87 343.959C644.3 343.669 645.19 343.739 645.73 343.829C646.98 341.999 650.58 343.829 650.39 345.829C651.2 346.529 652.24 346.929 652.42 348.179C652.81 350.809 647.58 363.989 646.22 367.319C643.5 373.999 635.3 392.639 627.92 394.329C619.97 396.149 615.99 386.919 610.41 383.149C610.35 395.959 611.57 408.809 613.04 421.519C613.14 422.389 613.72 422.999 613.73 423.129C614.71 431.419 615.93 439.709 616.43 448.059C614.44 448.519 612.37 449.339 610.4 449.779C601.32 451.809 591.73 452.609 582.44 452.409C581.63 447.939 581.51 443.359 581.02 438.849C580.96 438.309 580.42 437.919 580.41 437.789L579.26 435.319C576.99 418.499 575.8 400.539 576.83 383.529C576.88 382.679 577.12 381.839 577.39 380.989C577.66 380.139 578.02 379.299 578.42 378.479L579.75 379.069L579.77 389.579L587.1 363.339C581.97 358.059 581.05 355.159 589.21 353.699C589.61 346.399 590.45 339.329 591.74 332.499C592.1 332.619 592.71 332.389 593.07 332.499L593.08 332.489Z" fill="#4D1BCF"/>
<path d="M240.57 167.911L242.27 168.451C242.96 193.671 242.82 219.381 242.58 244.711C242.56 247.241 240.87 251.101 238.57 248.541L147.57 248.571C146.89 248.721 145.27 248.091 145.27 247.541V167.921C160.7 168.811 176.08 167.921 191.61 167.891C205.55 167.861 227.72 169.861 240.56 167.921L240.57 167.911Z" fill="#F7F9FE"/>
<path d="M661.06 487.069C660.94 488.739 661.16 488.959 661.73 487.739C662.68 488.609 662.7 492.399 662.44 493.329C662.22 494.119 660.26 493.489 659.78 494.819C659.07 496.819 661.69 499.089 659.06 501.069C657.867 499.943 657.867 499.943 659.06 501.069C657.34 502.369 654.68 501.449 654.39 501.729C654.15 501.959 654.15 508.159 654.39 508.399C654.74 508.749 663.37 508.089 664.35 509.099C664.57 509.319 664.56 514.689 664.43 515.369C664.27 516.169 662.5 515.299 662.34 516.099C661.93 518.179 663.26 521.409 661.72 523.059C661.073 522.573 661.073 522.573 661.72 523.059C661.06 523.769 659.43 523.569 659.72 525.059C658.933 525.459 658.933 525.459 659.72 525.059C659.72 525.059 660.35 524.959 660.38 525.399C660.95 534.289 655.01 529.729 654.39 530.399C654.27 532.859 654.87 535.449 653.72 537.729H663.38C664.81 537.729 664.46 543.649 664.29 544.959C662.49 546.419 660.04 545.149 658.66 545.329C657.98 545.419 657.93 546.249 657.72 546.389C657.29 547.789 657.29 549.339 657.72 551.049C656.22 554.759 654.84 551.689 654.03 553.009C652.85 554.949 654.75 557.289 653.72 559.049C649.74 557.809 649.14 563.979 653.2 564.809L653.72 566.379C655.73 566.969 657.46 566.829 659.05 567.709C658.97 568.669 658.36 569.129 657.21 569.079C659.25 571.339 659.65 573.099 658.38 574.369C658.67 576.259 658.72 581.519 656.59 582.259C654.11 583.119 653.83 580.879 653.71 584.369C651.03 583.919 649.59 586.699 652.75 586.989L653.71 588.359C660.68 589.879 663.41 586.589 662.37 596.359C661.42 596.359 660.09 597.049 658.74 597.049C646.54 597.089 634.33 597.049 622.14 596.929C620.8 596.549 621.62 595.049 621.3 593.849C620.56 591.079 619.96 586.789 617.72 585.029C618.25 584.899 619.94 584.589 620.06 584.409C622.85 580.189 620.08 571.529 619.78 566.629C619.43 561.019 620.75 555.579 621.04 550.679C621.26 546.969 618.66 546.499 624.37 544.049C622.49 542.709 621.83 540.859 620.65 539.089C620.34 538.619 619.21 538.569 619.05 537.909C618.8 536.909 618.91 533.269 619.08 532.079C619.22 531.079 620.44 530.219 620.32 529.479C620.2 528.739 616.84 525.839 617.06 524.079C618.14 522.519 620.13 523.119 621.72 523.059C621.92 520.159 618.4 518.829 619.06 515.739C619.59 515.189 625.02 516.809 624.38 514.749C624.29 514.469 621.61 509.929 621.39 509.739C620.3 508.759 618.3 509.399 617.8 507.999C617.52 507.199 617.53 503.649 617.81 502.829C618.14 501.889 619.45 501.909 619.6 501.659C620.77 499.779 616.04 496.599 615.7 494.769C615.36 492.939 619.34 493.999 620.71 493.769C623.66 493.259 620.93 491.269 619.67 489.449C619.21 488.789 619.15 487.389 618.95 487.209C618.08 486.449 612.9 488.049 612.38 486.439L661.03 487.109L661.06 487.069Z" fill="#F9B450"/>
<path d="M592.42 166.58C592.66 167.1 592.93 167.45 593.21 167.63L605.08 167.92C621.11 167.86 637.11 168.08 653.06 168.59C654.27 168.04 655.01 168.42 655.1 169.73L654.97 246.7C653.59 251.13 643.39 250.3 639.3 249.89L638.41 248.55C611.81 248.89 585.14 248.38 558.54 248.46C557.96 247.35 557.84 246.15 557.75 244.92C557.19 237.26 556.68 215.96 557.93 209.07C558.2 207.59 563.86 196.97 564.78 196.6C566.15 196.04 565.72 197.51 565.77 198.25C565.94 200.56 565.65 202.95 565.77 205.26C566.88 205.3 568 205.21 569.11 205.26L570.44 203.99C580.13 204.35 589.69 204.44 599.1 204.27C598.58 204.27 597.79 204.14 597.77 203.82C597.38 196.79 597.31 187.25 597.77 180.27C597.34 178.08 597.79 176.75 599.1 176.28C597.21 176.92 592.46 177.24 591.77 175.28L586.44 174.28C588.59 172.66 589.33 169 590.79 167.28C591.33 166.64 592.29 166.75 592.43 166.61L592.42 166.58Z" fill="#F7F8FD"/>
<path d="M679.72 523.72L753.73 523.34C754.6 523.94 754.58 527.64 754.37 528.74C754.05 530.4 752.51 530.12 752.34 530.84C752 532.26 752.82 534.07 752.03 535.71C751 537.85 747.33 536.74 747.02 537.03C746.79 537.24 747.19 541.99 747.02 543.03C749.52 543.54 755.79 541.61 756.35 544.69C757.92 553.29 751.56 549.18 750.35 550.36C749.99 550.71 750.91 555.23 750.07 556.41C749.39 557.37 747.27 556.83 747.04 557.05C746.59 557.5 746.55 569.26 747.01 569.69C747.21 569.88 750.45 569.28 751.68 570.35C753.09 573.87 750.73 575.63 748.19 577.36L742.86 580.06C745.54 580.52 748.67 581.92 746.64 584.55L747.01 589.01C748.68 590.68 752.96 588.73 754.05 590.3C754.85 591.46 754.1 594.78 754.34 596.34C754.12 596.34 753.9 596.34 753.67 596.34H718.2C716.21 595.88 714.59 594.24 713.35 591.41C706.83 590.87 701.24 580.21 711.59 581.64C708.18 577.67 708.28 575.68 713.34 574.63C711.35 572.02 709.21 569.51 706.91 567.12C705.09 564.89 705.38 562.68 708.23 561.7C704.78 556.99 705.44 554.71 711.83 555.2C709.6 553.12 708.88 551.29 709.69 549.7C710.51 547.35 717.93 547.85 719.69 549.7C717.88 549.11 716.47 547.65 715.47 545.33C706.44 545.33 700.14 532.39 713.43 535.39C710.14 531.51 709.95 528.16 715.88 528.35L713.45 525.1C702.56 524.81 691.63 524.84 680.67 525.18L679.71 523.71L679.72 523.72Z" fill="#FAB54B"/>
<path d="M679.72 523.719C685.3 524.819 711.19 522.129 714.37 524.059C714.62 524.209 717.58 528.329 717.7 528.729C718.34 530.859 712.8 528.649 712.38 530.729C712.11 532.069 715.32 534.589 715.05 536.369C712.66 537.549 710.48 536.039 708.05 536.369C707.2 536.479 706.79 536.079 707.04 537.389C707.73 541.099 712.23 545.079 716.28 543.819L719.71 549.709H709.71C710.64 552.369 713.78 554.029 713.7 557.039C711.26 556.949 709.44 555.909 707.04 557.049L710.38 562.699C710.38 563.379 706.76 562.539 707.09 564.639C707.46 567.009 714.42 572.009 715.05 575.359C715.45 577.459 711.23 575.379 710.39 577.359C710.36 578.349 714.31 581.999 713.05 582.709C711.55 583.549 708.78 582.789 707.04 583.039C706.27 583.789 709.3 588.429 710.04 589.029C711.26 590.009 712.7 589.509 714.08 590.319C716.25 591.609 716.28 595.909 718.69 596.369H753.68C728.94 596.659 703.85 596.409 679.04 596.369C678.86 595.229 679.3 589.959 679.04 589.699C678.48 589.139 672.53 590.819 671.8 588.609C669.73 582.309 674.57 583.449 675.01 583.019C675.27 582.769 674.84 579.749 675.04 578.719C675.47 576.479 677.65 576.569 677.06 572.019C676.53 567.859 672.47 570.489 671.69 569.719C671.23 569.269 672.04 564.549 672.01 563.369C671.98 562.189 671.35 561.139 671.37 560.059C671.44 554.959 674.38 556.949 675.01 556.369C675.4 556.009 674.37 552.259 675.63 550.659C676.98 548.939 680.69 550.059 681.03 549.729C681.27 549.499 680.86 544.779 681.03 543.729C679.5 543.599 672.06 544.299 671.67 542.619C669.63 533.889 676.33 537.089 677.03 536.399C677.33 536.109 676.76 531.849 676.98 530.759C677.13 529.999 678.66 530.629 678.95 530.349C679.63 529.669 678.11 524.249 679.69 523.729L679.72 523.719Z" fill="#F9A534"/>
<path d="M566.43 335.15L567.13 335.73C564.55 341.78 563 348.01 562.5 354.42C568.66 355.65 569.39 359.08 564.35 362.71C560.77 364.56 567.03 392.32 567.23 390.89L567.75 359.25L569.1 358.48C569.68 360.93 570.23 363.41 570.25 365.94C570.42 387.15 570.52 408.43 570.43 429.65C570.43 430.89 570.21 432.13 569.99 433.38C569.77 434.63 569.44 435.87 569.09 437.11C569.07 442.21 569.1 447.34 569.09 452.44C568.52 453.01 558.02 451.55 556.43 451.1C555.98 450.98 552.45 449.57 552.39 449.36L553.09 392.46C546.25 398.98 542.59 402.4 534.44 395.13C527.46 388.9 519.52 375.15 515.31 366.62C513.9 363.77 511.95 360.28 511.79 357.15C511.89 354.91 516.79 351.67 518.45 353.82C520.71 356.33 524.02 358.86 526.46 361.46C530.61 365.89 534.53 370.8 538.81 375.09C539.36 375.64 539.4 376.04 540.42 375.8C545.44 365.65 549.97 352.59 556.14 343.21C559.42 338.22 561.94 337.93 566.41 335.16L566.43 335.15Z" fill="#4E1DCE"/>
<path d="M88.47 322C109.87 319.06 126.6 340.03 118.08 360.27C107.4 385.65 68.43 380.51 65.49 351.96C64.03 337.74 74.09 323.97 88.47 322Z" fill="#FEFEFE"/>
<path d="M106.62 440.43C114.22 438.66 114.35 450.74 106.81 446.35C106.81 447.27 106.18 447.86 105.27 448.16C101.21 446.81 97.6299 450.28 104.3 449.25C106.99 449.97 112.83 453.401 113.96 455.761C113.8 456.351 113.45 456.72 112.87 456.83L102.78 454.011C98.5599 453.101 83.0599 474.39 83.9499 475.55C86.4499 478.81 134.22 484.83 138.69 480.85C140.36 479.37 137.95 461.9 134.64 460.27C130.81 459.56 126.9 459.37 122.91 459.71C120.17 459.36 114.51 458.54 113.96 455.75C114.04 455.44 114.15 455.141 114.34 454.921C114.9 454.261 122.19 454.3 123.44 454.8C124.14 453.28 124.7 452.28 126.56 452.72C122.22 448.48 128.2 447.62 131.78 449.72C134.4 446.09 138.53 445.491 141.95 448.421C142.86 449.301 144.56 450.92 145.28 451.75L146.61 453.75C146.81 453.99 147.09 454.171 147.28 454.421C149.18 458.411 151.18 462.361 153.27 466.261C154.88 471.651 156.44 477.03 157.94 482.41C158.11 483.62 157.91 488.39 158.69 488.99C159.25 489.43 161.47 488.54 161.94 489.74L61.9799 490.41C61.7699 492.18 61.1499 492.1 60.6499 490.41C58.5899 490.13 56.5999 489.91 54.6499 489.74L61.6399 488.4C67.9999 475.96 75.2699 464.221 85.2999 454.421C86.2899 454.041 86.9399 453.421 87.2999 452.421C88.8699 451.001 90.5999 450.12 91.9599 449.09L94.6299 447.09C96.8999 444.7 99.1299 443.87 101.96 442.43C102.97 442.25 103.96 441.92 104.63 441.1C105.12 440.87 105.92 440.74 106.63 440.43H106.62Z" fill="#FDECDA"/>
<path d="M349.19 76.6309L328.53 109.281H339.19V98.6209H353.85V109.281H362.51V119.611C362.51 121.581 355.19 119.721 354.14 121.231C353.18 122.611 354.23 128.551 353.85 130.601H339.19C338.86 128.801 340.05 121.091 338.22 120.771C337.89 120.711 336.48 121.291 335.57 121.301C332.29 121.341 311.53 121.691 310.5 120.981C309.36 120.181 309.71 112.461 310.38 110.781L334.86 76.6309H349.19Z" fill="#F6A438"/>
<path d="M346.52 195.89H260.56C261.53 190.54 257.92 184.09 262.18 179.86C262.76 179.29 264.96 177.9 265.55 177.9H345.52C345.59 177.9 346.52 178.83 346.52 178.9V195.89Z" fill="#4E1FBE"/>
<path d="M460.47 76.6309L439.15 109.281H450.48C451.61 105.841 451.02 102.181 451.15 98.6209H465.14V109.281H473.14V120.611H465.14V130.601H450.48C450.13 128.681 451.41 121.161 449.43 120.681L421.16 121.271V110.941L446.15 76.6309H460.48H460.47Z" fill="#F6A337"/>
<path d="M173.93 584.351C172.03 587.761 171.41 591.911 170.98 595.721C170.19 596.901 165.04 596.201 163.27 596.341C163.08 594.751 163.94 587.011 162.27 587.011H151.94V577.681C151.94 577.501 154.5 577.831 155.47 577.551C158.7 576.611 156.65 570.611 157.26 568.161C157.5 567.201 159.55 568.051 159.97 564.071C160.81 556.221 158.69 557.661 151.94 557.701C151.92 554.601 151.98 551.471 151.94 548.371L180.59 521.721C177.5 541.381 174.22 560.991 171.95 580.791C171.64 581.651 173.39 584.031 173.92 584.351H173.93Z" fill="#A98BE6"/>
<path d="M37.17 389.979C61.67 387.239 64.8 423.659 42.24 426.359C16.89 429.389 13.54 392.619 37.17 389.979Z" fill="#FEFDFE"/>
<path d="M523.78 178.569L523.38 180.069C525.79 183.909 526.53 191.319 525.77 195.709L524.45 196.569L451.15 195.899C454.12 193.729 457.38 191.169 460.48 189.239C463.19 187.559 478.54 178.209 480.17 177.949C489.86 176.389 509.39 177.789 520.13 177.899C521.26 177.909 523.09 177.469 523.79 178.579L523.78 178.569Z" fill="#4B1CBE"/>
<path d="M591.75 175.239C593.14 175.259 599.08 174.769 599.08 176.239V204.219C599.08 204.949 597.45 205.169 596.78 205.249C589.62 206.089 576.62 205.559 569.09 205.219C568.53 204.389 566.51 204.849 566.38 204.169C566.13 202.899 566.27 196.329 566.77 195.239C569.97 192.349 582.64 175.779 585.43 175.249C587.09 174.939 589.89 175.209 591.75 175.239Z" fill="#F6B638"/>
<path d="M241.23 159.251L242.01 159.721C241.9 162.871 242.53 165.381 243.9 167.241C243.93 169.891 241.7 170.131 240.57 167.911L146.94 167.241C143.65 166.631 145.01 158.291 148.91 158.541H238.98C240 158.191 240.67 159.041 241.23 159.241V159.251Z" fill="#5124BC"/>
<path d="M524.45 291.84C524.48 289.85 524.42 287.84 524.45 285.85C524.7 285.57 530.66 288.37 529.82 290.14C528.51 304.47 531.43 321.51 529.8 335.5C529.58 337.39 528.81 339.19 526.95 339.98C525.6 340.56 518.84 341.07 516.82 341.18C508.99 341.59 501.2 340.51 493.5 340.45C477.72 340.34 461.21 341.35 445.6 340.9C441.43 340.78 437.19 340.79 436.49 335.82L515.53 335.87C516.43 336.23 517.41 335.22 517.78 335.15C521.47 334.49 523.19 334.49 524.41 330.11C524.64 317.36 524.23 304.58 524.45 291.84Z" fill="#D1CFFC"/>
<path d="M565.76 303.17C565.83 302.86 565.92 302.56 566.09 302.32C566.5 301.75 577.96 301.49 579.36 302.05C582.95 303.48 583.21 304.41 583.8 308.17C591.96 304.06 590 314.79 588.01 319.47L588.41 320.49C586.37 324.21 586.57 327.26 588.41 331.15C588.08 334.1 586.97 335.88 585.08 336.48L584.5 336.06C583.61 339.48 572.56 342.03 570.42 337.14C568.74 337.07 569.31 333.75 570.13 334.25L569.75 333.14C571.54 331.94 571.6 328.29 571.11 326.25C570.97 325.68 568.7 325.17 567.73 324.16C563.64 319.88 566.88 308.71 565.75 303.16L565.76 303.17Z" fill="#F6B183"/>
<path d="M580.93 52.1509C605.85 48.5309 606.34 84.1409 584.58 85.1209C563.34 86.0709 561.9 54.9209 580.93 52.1509Z" fill="#AA8DE5"/>
<path d="M227.9 299.839C228.06 305.519 230.23 318.559 226.89 323.149C225.87 324.549 223.36 324.979 223.21 325.599C222.6 328.139 223.93 331.359 223.9 333.149C225.69 333.969 225.14 335.199 223.23 335.149C223.56 336.249 223.33 337.359 222.56 338.479C221.95 340.249 221.2 340.339 220.56 338.479C217.73 337.499 214.35 336.489 211.44 335.269C209.36 334.389 205.38 331.249 203.9 331.149C203.4 326.469 207 324.649 203.9 319.159C203.27 316.709 201.61 307.829 204.7 306.259C205.45 305.879 206.15 305.699 206.99 305.979C208.95 307.879 210.24 308.559 210.88 308.039C211.47 304.089 211.75 302.259 215.29 299.929C217.19 298.679 226.16 298.049 227.9 299.839Z" fill="#F9B383"/>
<path d="M227.9 299.841C225.61 300.431 220.46 299.941 217.62 300.561C210.35 302.151 214.07 308.951 210.78 309.771C208.53 310.331 207.4 305.911 205.22 307.481C204.79 307.791 203.98 313.321 203.97 314.251C203.96 315.921 206.56 319.571 203.91 319.171C201.39 314.701 197.2 311.271 196.58 305.511C195.39 294.441 202.17 285.541 213.55 285.151C219.15 284.961 223.61 288.081 229.05 289.031C232.98 290.401 230.62 299.151 227.89 299.851L227.9 299.841Z" fill="#010101"/>
<path d="M462.47 179.239C459.78 183.529 453.9 186.509 451.81 191.229C450.46 192.389 447.47 195.619 446.13 195.879H417.16C418.27 193.679 424.67 178.769 425.6 178.539L462.47 179.229V179.239Z" fill="#4B1CBE"/>
<path d="M588.42 320.49C586.34 320.81 587.14 319.65 587.28 318.36C587.5 316.32 589.48 310 587.8 308.78C585.86 307.8 584.6 309.08 583.42 310.48C581.75 308.98 582.66 306.24 581.39 304.53C579.36 301.8 569.32 303.81 565.76 303.16C564.24 302.88 561.63 300.45 561.72 298.84C561.74 298.51 563.07 298.53 563.13 298.09C563.26 297.17 562.33 295.59 562.37 294.17C562.5 289.69 567.8 286.29 571.99 286.53C574.25 286.66 583.97 288.77 586.44 289.46C597.15 292.49 596.74 305.48 592.77 313.84C591.66 316.18 589.57 318.36 588.41 320.47L588.42 320.49Z" fill="#010101"/>
<path d="M594.42 164.58C595.03 164.94 595.59 165.4 595.21 166.01C614.14 165.56 633.01 165.64 651.8 166.24L653.73 167.25C654.28 166.07 655.39 166.07 657.06 167.25C658.12 194.27 656.52 222.18 656.76 249.24C655.89 251.9 648.94 251.57 645.95 251.62C632.08 251.86 617.98 251.07 604.05 251.17C591.54 251.26 577.99 252.94 565.4 251.9C563.66 251.76 560.34 251.57 560.43 249.21L638.39 248.54C641.19 248.5 651.31 249.1 652.78 247.94C653.33 247.51 653.61 246.87 653.7 246.19L653.76 170.18C653.87 169.31 653.57 169.1 653.06 168.58C637.42 168.05 621.43 167.83 605.08 167.91C601.64 167.9 598.16 168.02 594.72 167.91C593.44 167.87 592.05 168.59 592.42 166.58C593.09 165.93 593.73 165.24 594.42 164.58Z" fill="#D4D2FC"/>
<path d="M366.51 274.519C366.19 276.689 360.12 276.639 359.85 274.519C358.08 274.479 356.29 274.549 354.52 274.519V244.539C360.97 245.719 368.4 246.309 374.67 248.039C375.49 248.269 376.89 248.729 377.09 249.609C377.25 250.299 373.46 261.549 372.84 263.189C372.17 264.959 369.17 272.459 368.44 273.469C367.77 274.389 367.56 274.369 366.51 274.529V274.519Z" fill="#F7F8FD"/>
<path d="M653.73 159.249C654.93 161.189 655.9 166.099 653.73 167.249C634.05 165.919 612.92 168.249 593.09 167.249L594.42 164.589C596.43 162.639 598.74 161.149 600.22 158.579C616.71 159.749 635.23 157.069 651.47 158.539C652.81 158.659 652.88 158.949 653.72 159.249H653.73Z" fill="#5224BC"/>
<path d="M60.64 490.399H61.97C76.26 490.399 90.58 490.429 104.88 490.359C105.64 493.919 108.82 495.759 109.95 499.059H99.95V508.389H98.6201V499.059C96.0301 499.729 89.03 497.269 89.95 501.059L88.2601 499.019L63.97 499.729L63.4001 500.469C60.75 499.229 58.28 498.759 55.98 499.059C54.9 498.769 53.9401 498.139 52.6501 498.389C52.3801 498.209 53.28 497.419 53.32 497.059C53.55 494.989 52.7301 492.229 53.9901 490.399C55.9901 489.639 58.5501 489.929 60.6501 490.399H60.64Z" fill="#F7A435"/>
<path d="M243.9 161.25C244.8 163.06 244.71 164.21 244.61 166.3C244.55 167.43 243.9 168.64 243.9 168.91V249.53C243.9 252.32 229.74 251.84 227.58 251.86C214.75 251.95 201.75 251.09 188.92 251.13C180.94 251.16 154.66 253.69 149.09 251.04C148.36 250.69 147.46 250.03 147.27 249.2L238.56 248.53C240.81 248.48 241.26 246.05 241.26 244.23C239.95 220.26 242.9 194.64 241.26 170.86C241.19 169.82 241.17 168.8 240.56 167.9C241.63 167.74 243.48 168.46 243.89 167.23C242.04 166.69 241.79 161.65 243.89 161.23L243.9 161.25Z" fill="#D2D1FC"/>
<path d="M110.62 435.77C112.87 439.38 121.22 439.71 125.62 439.64C128.6 439.93 128.99 439.63 130.61 437.77C133.84 442.4 137.64 444.24 141.94 448.43C139.09 446.75 132.22 448.13 132.58 452.08C132.6 452.3 136.23 453.44 132.28 455.08C130.46 454.2 132.45 452.77 131.89 451.86C131.39 451.05 126.41 448.22 125.95 451.08C127.68 450.69 128.6 453.72 127.95 454.42C127.57 454.83 125.41 453.67 125.3 453.75C125.19 453.83 124.76 456.31 124.61 456.42C124.38 456.59 122.45 455.79 121.63 455.75C119.39 455.65 115.85 456.16 113.96 455.75C111.34 455.18 106.17 450.95 104.1 450.55C102.31 450.2 100.4 452.04 99.3901 449.3C98.8601 447.86 100.67 446.8 101.82 446.57C103.44 446.24 105.09 447.12 105.23 447.03C105.58 446.78 105.37 445.04 106.95 445.06C108.05 445.07 109.66 447.84 110.98 445.1C112.07 442.82 108.49 441.15 106.63 440.44C111.23 438.43 108.87 439.06 110.63 435.78L110.62 435.77Z" fill="#FCECDA"/>
<path d="M357.85 277.181C341.74 277.521 325.68 278.231 309.51 277.151C298.18 278.471 286.57 277.901 275.22 277.181V210.551C275.22 210.421 277.89 210.421 277.89 210.551V274.181C277.89 276.141 281.67 274.501 281.89 274.511L282.99 273.241H291.48L292.55 274.511C295.86 274.341 299.24 274.631 302.55 274.511V263.181L304.05 263.071C304.56 266.491 304.81 269.941 304.79 273.421L312.07 272.601L313.2 273.841C318.83 275.281 318.08 274.401 323.2 274.511C325.11 272.421 331.26 273.241 333.2 275.181C336.73 275.151 340.34 275.341 343.86 275.181C344.37 273.261 346.64 273.331 347.19 275.181C351.24 274.791 356.05 276.031 359.85 274.511C361.82 274.561 364.69 274.771 366.51 274.511C368.96 278.481 360.1 277.131 357.85 277.181Z" fill="#D3D1FB"/>
<path d="M588.42 331.16C590 331.19 590.78 332.18 591.75 332.49C592.52 333.6 592.46 334.77 592.36 336.05C591.88 342.25 590.66 348.48 590.44 354.72L584.41 356.49C583.31 358.09 588.28 361.69 588.38 363.45C585.44 373.31 582.82 383.29 580.18 393.23C579.7 395.04 580.23 397.73 578.42 398.46V378.47C578.11 377.9 577.82 377.32 577.63 376.72C577.44 376.12 577.27 375.55 577.3 374.99C577.65 367.59 580.05 342.68 583.73 337.89C584.12 337.38 584.59 336.93 585.07 336.5C585.58 334.86 586.62 332.96 587.19 331.28C587.53 331.02 588 331.17 588.4 331.17L588.42 331.16Z" fill="#4019A4"/>
<path d="M423.82 302.5H507.12L506.49 306.87L418.48 307.16C419.62 304.66 420.35 301.94 423.81 302.5H423.82Z" fill="#CFCDFB"/>
<path d="M520.29 123.44C534.69 121.5 541.07 141.03 528.38 147.52C509.56 157.15 500.9 126.06 520.29 123.44Z" fill="#A98CE5"/>
<path d="M439.15 280.519C442.07 279.759 446.61 281.159 449.41 281.119C450.41 281.099 451.55 280.499 452.79 280.489C470.67 280.249 488.59 280.739 506.46 280.519C506.38 282.859 507.36 286.019 504.16 285.889C482.19 287.349 457.45 283.819 435.82 285.859C433.85 284.529 438.37 280.729 439.15 280.529V280.519Z" fill="#D0CEFC"/>
<path d="M506.45 291.841V296.511H426.48C427.09 294.481 428.42 291.791 430.78 291.811L506.45 291.841Z" fill="#CECCFB"/>
<path d="M323.2 274.519V243.199H333.86C333.35 252.999 334.55 263.469 333.86 273.179C333.81 273.889 333.53 274.569 333.19 275.179C329.67 275.209 326.19 274.579 323.19 274.509L323.2 274.519Z" fill="#F7A638"/>
<path d="M569.76 333.149C572.16 332.619 570.59 335.239 570.43 337.149C571.91 343.959 571.36 351.879 569.1 358.469L568.43 399.779C567.44 399.949 567.6 398.529 567.43 397.789C565.43 388.879 562.13 376.319 561.77 367.459C561.49 360.409 565.91 361.399 566.45 358.129C566.75 356.319 562.18 356.309 561.4 355.159C559.45 352.269 564.68 338.559 566.42 335.139C567.5 334.469 568.76 333.809 569.75 333.139L569.76 333.149Z" fill="#3B179D"/>
<path d="M305.87 335.82H368.51L367.2 340.18L300.54 340.49C299.1 341.7 298.42 340.49 298.67 338.82C298.95 337 304.7 333.46 305.87 335.82Z" fill="#CECDFB"/>
<path d="M529.78 197.231C530.02 216.291 529.66 235.401 529.71 254.461L524.45 255.201C524.28 238.111 524.67 220.981 524.45 203.891C524.42 201.681 524.5 199.441 524.45 197.231C524.72 195.191 529.34 195.281 529.78 197.231Z" fill="#D2CFFE"/>
<path d="M135.28 423.771C136.11 424.811 135.78 426.041 134.28 427.441C135.77 426.281 136.99 426.161 137.95 427.101C140.8 432.811 131.5 434.771 130.62 437.761C129.34 437.811 127.91 437.221 126.35 436.001C121.72 436.161 116.86 435.461 113.29 432.431C114.43 430.631 112.46 428.141 112.13 425.931C111.27 419.991 111.55 415.151 118.62 418.121C121.04 419.131 123.93 422.631 125.09 422.971C128.03 423.841 132.9 422.071 135.28 423.771Z" fill="#FBE9DA"/>
<path d="M343.86 275.189V244.539H353.86V274.519C352.22 274.649 350.43 274.309 348.81 274.489C347.97 274.589 347.29 275.179 347.2 275.179C346.1 275.269 344.97 275.129 343.87 275.179L343.86 275.189Z" fill="#F8B43A"/>
<path d="M380.51 399.121C379.54 400.291 378.56 401.761 377.18 402.451C377.58 400.511 378.88 398.801 379.84 397.121C382.39 392.661 390.59 381.141 391.7 377.331C391.85 376.811 391.89 376.341 391.84 375.801L385.17 375.131C384.52 374.551 388.98 363.811 390.17 363.811H400.83C403.7 363.811 397.66 369.301 397.83 370.131C398.25 372.131 405.85 370.211 405.81 372.141C405.79 373.151 393.4 384.401 391.49 386.461C387.7 390.541 384.06 394.841 380.5 399.131L380.51 399.121Z" fill="#CB31E1"/>
<path d="M495.13 269.851C498.5 270.131 500.05 271.411 502.83 273.181C503.7 273.731 504.78 273.751 504.46 275.181C491.45 273.931 473.96 275.081 460.48 275.181C457.95 273.331 444.4 275.431 443.15 274.511C443.95 272.601 445.34 270.901 447.15 269.851C462.69 270.821 479.78 268.551 495.13 269.851Z" fill="#CFCEFC"/>
<path d="M485.61 42.8006C503.82 39.0206 502.68 68.3106 485.92 64.1806C474.36 61.3306 475.6 44.8806 485.61 42.8006Z" fill="#AB8CE6"/>
<path d="M417.82 311.83L420.78 313.19L465.13 313.16V317.83H414.48C414.35 314.09 414.92 314.18 417.15 312.5C417.35 312.35 417.84 312.39 417.82 311.83Z" fill="#D0CEFB"/>
<path d="M361.18 295.169C369.24 295.479 377.17 296.809 385.17 297.839C385.71 300.169 382.34 298.929 380.78 299.139C379.95 299.249 379.26 299.829 379.17 299.829C368.36 300.709 352.5 300.369 341.49 299.859C338.19 299.709 334.69 298.599 331.19 299.169V295.159C341.16 295.449 351.22 294.779 361.18 295.159V295.169Z" fill="#D0CDFA"/>
<path d="M587.75 158.58C588.36 159.17 583.26 167.24 582.75 167.24H557.76C557.37 165.08 557.69 158.58 560.76 158.58H587.75Z" fill="#5323C0"/>
<path d="M381.84 305.17C381.31 306.23 381.93 308.98 379.51 309.17H331.2V305.17H381.85H381.84Z" fill="#D0D0F9"/>
<path d="M433.15 340.481H395.83C396.04 339.731 397.72 336.061 397.93 335.921C400.02 334.591 425.53 336.71 430.15 335.81C431.89 336.14 432.88 338.791 433.15 340.481Z" fill="#D0CEFB"/>
<path d="M304.54 333.149C307.12 332.759 307.01 333.689 305.87 335.819C304.26 336.269 299.87 337.739 299.86 339.469C299.86 340.039 300.51 340.349 300.53 340.479C302.27 349.269 299.53 349.819 291.2 350.469C290.94 348.549 287.58 344.379 286.54 342.469C288.03 341.849 288.08 341.379 288.54 341.139C290.32 338.189 293.43 336.629 297.87 336.479C298.7 336.079 299.44 335.339 299.87 335.149C301.31 334.509 303.09 333.719 304.53 333.149H304.54Z" fill="#F6B387"/>
<path d="M203.91 331.161C204.08 332.801 209.9 339.201 211.39 341.341C213.66 344.601 215.74 348.841 217.91 351.821C218.04 354.121 217.57 352.881 216.51 352.221C209.25 347.641 199.5 343.301 198.58 333.831C200.31 332.861 201.75 331.031 203.91 331.161Z" fill="#3B17A0"/>
<path d="M286.44 149.15C286.35 149.29 283.64 150.47 283.43 150.49C279.16 150.95 284.88 139.82 282.6 138.22C278.73 135.5 277.42 141.14 275.64 142C269.77 144.81 270.77 138.53 273.87 135.57C276.97 132.61 283.68 131.19 286.86 134.64C290.45 138.54 287.39 141.36 286.6 144.97C286.33 146.2 286.93 148.38 286.45 149.16L286.44 149.15Z" fill="#F7AC42"/>
<path d="M297.88 336.49C294.69 338.03 291.67 339.47 288.55 341.15C281.9 338.08 266.58 344.88 264.56 335.82L297.88 336.48V336.49Z" fill="#CBCAFB"/>
<path d="M130.61 437.761C130.39 438.511 131.11 439.881 130.22 440.501C128.37 441.791 113.71 440.181 111.72 438.991C110.32 438.151 110.53 437.151 110.62 435.761C111.25 434.591 112.77 433.251 113.29 432.431C116.07 431.691 118.02 434.031 120.32 434.391C124.81 435.101 127.34 433.081 130.61 437.761Z" fill="#D37234"/>
<path d="M511.79 357.14C511.71 357.11 511.52 356.3 511.09 356.18C505.83 354.65 497.74 352.61 497.8 345.82C502.29 346.54 506.14 349.55 510.79 349.82C513.55 349.98 509.4 345.91 512.11 345.82C515.08 347.85 516.15 351.26 518.45 353.81C516.46 353.44 512.89 357.53 511.79 357.14Z" fill="#F8BA90"/>
<path d="M228.57 336.49C230.72 339.43 235.77 350.11 235.86 353.56C235.92 356.01 233.36 357.24 233.89 359.81C232.33 360.43 232.46 358.6 231.89 358.47C231.31 358.28 231.32 358.06 231.89 357.8C231.72 356.19 231.27 354.63 230.56 353.14L228.77 352.05C227.37 346.84 225.29 341.99 223.14 337.08C222.85 336.42 222.83 335.82 223.23 335.15C223.36 334.75 223.89 333.26 223.9 333.15C225.85 333.94 227.3 334.76 228.56 336.48L228.57 336.49Z" fill="#3D19A7"/>
<path d="M523.78 178.569C531.94 179.719 529.7 191.149 529.78 197.229H524.45C524.45 197.009 524.45 196.789 524.45 196.559C524.3 190.709 525.6 182.899 520.45 178.899C521.07 178.339 522.97 178.459 523.78 178.569Z" fill="#371B6D"/>
<path d="M618.93 100.751C620.03 100.661 624.4 101.271 624.39 102.281C622.24 103.531 611.27 114.851 610.09 114.601C608.78 114.331 608.95 110.671 609.07 109.591C609.6 104.751 614.29 101.121 618.94 100.751H618.93Z" fill="#AD90E4"/>
<path d="M577.09 175.91C573.88 180.94 570.98 186.58 566.43 190.57V175.91H577.09Z" fill="#F3B741"/>
<path d="M250.56 449.76V450.43C251.32 451.01 250.88 451.67 249.23 452.43C252.68 453.98 249.91 456.61 247.1 457.53C242.92 458.9 242.42 457.47 241.89 453.76C241.88 452.43 241.62 447.81 242 447.2C242.2 446.87 247.81 444.47 248.55 443.1C248.55 444.56 250.41 447.89 250.55 449.76H250.56Z" fill="#F6B689"/>
<path d="M550.44 268.519C550.41 269.729 550.59 274.749 548.79 274.509L531.77 267.859L550.43 268.519H550.44Z" fill="#D142E9"/>
<path d="M751.68 570.359C752.61 571.169 752.64 574.719 752.39 575.989C752.23 576.789 750.46 575.919 750.3 576.719C750 578.279 750.92 580.909 750.03 582.369C749.43 583.349 747.36 583.409 747.12 583.789C746.58 584.659 747.27 587.729 747.02 589.019C745.43 587.429 747.22 584.449 745.76 582.619C744.7 581.289 741.49 581.819 740.37 580.019C740.37 579.089 753.59 575.219 751.69 570.359H751.68Z" fill="#FBD6A0"/>
<path d="M463.8 144.599C464.34 145.349 462.99 146.439 462.48 146.929C459.47 149.849 455.03 152.429 451.81 155.249L460.13 141.939C460.51 143.259 463.66 144.419 463.79 144.609L463.8 144.599Z" fill="#CE3CE9"/>
<path d="M157.93 482.41C155.26 480.26 155.61 475.51 154.56 472.12C153.98 470.26 152.35 465.2 151.56 463.8C150.77 462.4 148.73 461.89 148.59 461.28C148.14 459.27 148.7 456.68 147.27 454.42C153.66 462.59 156.47 472.17 157.93 482.4V482.41Z" fill="#FCECDA"/>
<path d="M354.51 167.241C353.03 166.141 347.6 159.351 347.26 158.111C346.86 156.631 349.44 154.541 350.18 154.601C351.28 154.681 353.92 165.431 354.5 167.241H354.51Z" fill="#D13DE9"/>
<path d="M653.73 559.03C654.01 561.49 655.18 564 653.73 566.36C651.64 565.75 649.15 564.69 649.13 562.04C649.11 559.39 651.24 555.29 653.73 559.03Z" fill="#F7B939"/>
<path d="M286.98 151.399C289.46 151.169 291.86 154.789 289.26 156.969C284.62 160.849 281.6 151.889 286.98 151.399Z" fill="#F5AA45"/>
<path d="M419.16 365.131L415.17 366.471L413.17 355.811L419.16 365.131Z" fill="#D143E8"/>
<path d="M657.06 167.24C655.65 168.71 654.26 167.28 653.73 167.24L653.22 159.63L653.73 159.24C657.95 160.78 656.91 163.41 657.06 167.24Z" fill="#3E1D79"/>
<path d="M137.94 427.1L129.95 431.09L135.28 423.76C135.6 423.99 137.7 426.6 137.95 427.09L137.94 427.1Z" fill="#E5C7AD"/>
<path d="M659.06 567.69C660.79 568.22 661.43 574.83 658.39 574.35C657.99 571.71 655.78 570.03 655.06 567.69C656.2 567.89 658.1 567.4 659.06 567.69Z" fill="#F7B939"/>
<path d="M357.18 357.15C356.07 358.55 354.29 364.16 353.19 364.86C351.98 365.63 348.49 363.42 350.55 362.18L357.18 357.15Z" fill="#D24AE8"/>
<path d="M243.9 161.25C243.6 162.85 244.33 165.97 243.9 167.25C242.9 166.97 241.33 168.16 241.23 166.27C241.12 164.14 240.58 161.15 241.23 159.25C242.69 159.76 243.11 159.66 243.9 161.25Z" fill="#42227D"/>
<path d="M653.73 584.35C653.68 585.68 653.76 587.02 653.73 588.35C652.96 588.18 652.08 588.53 651.09 588.02C647.95 586.37 650.69 580.9 653.73 584.36V584.35Z" fill="#F7B939"/>
<path d="M661.06 487.07C661.32 487.2 661.67 487.46 661.73 487.74C661.89 488.54 662.19 492.69 661.07 493.07L658.73 487.74L661.06 487.08V487.07Z" fill="#F7B939"/>
<path d="M657.72 546.37C659.26 547.73 658.3 549.6 657.72 551.03C656.2 550.58 656.17 548.64 656.33 547.33C656.52 545.68 657.39 546.59 657.72 546.36V546.37Z" fill="#F7B939"/>
<path d="M60.64 490.4H53.98C54.17 490.13 54.28 489.81 54.65 489.73C55.96 489.44 59.7 489.43 60.65 490.4H60.64Z" fill="#FAB94D"/>
<path d="M94.63 447.09C94.42 447.31 94.75 449.28 91.96 449.09C92.58 448.62 92.97 446.92 94.63 447.09Z" fill="#FCECDA"/>
<path d="M104.62 441.1C104.27 442.32 103.12 442.55 101.95 442.43C102.88 441.96 103.65 441.55 104.62 441.1Z" fill="#FCECDA"/>
<path d="M85.3 454.42C85.99 453.75 86.47 453.17 87.3 452.42C87.37 453.77 86.63 454.4 85.3 454.42Z" fill="#FCECDA"/>
<path d="M146.61 453.76C145.68 453.43 145.28 452.74 145.28 451.76C146.13 452.74 146.35 453.44 146.61 453.76Z" fill="#FCECDA"/>
<path d="M97.29 547.711C97.73 553.261 96.27 555.111 101.58 559.081L106.62 567.031C105.17 567.201 98.73 566.411 98.64 568.031C98.56 569.541 103.54 574.771 103.82 576.181C104.09 577.521 102.9 579.461 103.28 581.021C101.05 581.571 102.4 579.351 101.66 578.321C100.81 577.121 93.96 577.401 93.97 578.681C96.96 581.311 98.27 588.921 103.24 585.721L110.08 596.201L162.59 596.341C130.56 598.521 90.73 598.191 58.63 597.011C56.83 596.801 55.27 596.361 53.97 595.681C54.6 594.581 55.62 594.631 56.64 594.351C77.54 591.921 95.89 569.651 95.51 548.501C95.97 547.971 96.57 547.731 97.29 547.711Z" fill="#F8A432"/>
<path d="M63.97 499.731C69.43 501.711 76.31 505.831 80.63 509.721C81.04 509.651 81.46 509.601 81.86 509.641C86.25 510.131 97.96 531.631 97.6 536.441C97.54 537.201 97.13 537.831 96.62 538.371C97.06 540.861 97.07 544.971 97.29 547.701C95.97 549.821 96.84 552.681 96.45 555.191C93.98 571.321 82.66 585.251 68.11 592.151C64.88 593.681 60.14 596.331 56.64 594.341C104.96 580.741 104.67 512.391 55.97 499.061C56.05 498.521 55.66 497.821 56.32 497.711C57.28 497.561 62.62 499.241 63.96 499.721L63.97 499.731Z" fill="#DC862A"/>
<path d="M53.9799 595.68C54.8499 595.73 57.7699 596.48 58.6399 597.01C55.2799 596.89 52.0299 596.08 48.6399 596.34C50.2699 596.18 51.5599 595.54 53.9699 595.67L53.9799 595.68Z" fill="#DC862A"/>
<path d="M214.58 515.721C215.87 516.941 216.45 518.711 216.32 521.041C217.48 524.421 217.57 527.311 216.57 529.721C219.14 544.861 222.74 560.551 227.9 575.031C221.36 581.311 214.81 588.011 208.25 595.141L205.25 596.361C199.29 596.331 193.29 596.451 187.33 596.281L183.92 586.371L186.75 584.201C196.03 561.841 204.62 539.241 213.06 516.551C213.55 515.231 212.64 514.471 214.57 515.741L214.58 515.721Z" fill="#AA8CE5"/>
<path d="M303.21 537.041C304.44 536.421 305.99 536.391 307.21 537.041C308.21 537.281 309.14 538.691 309.76 539.491C315.18 546.621 320.83 558.151 325.66 566.191C329.01 571.751 336.87 581.851 338.83 587.711C340.33 592.191 338.46 593.331 335.87 596.341C315.24 596.301 294.52 596.741 273.9 596.341C271.06 593.451 270.52 591.941 271.76 587.861C281.36 573.231 288.99 555.261 298.95 541.091C300.19 539.331 300.85 537.431 303.22 537.041H303.21Z" fill="#F7A336"/>
<path d="M275.22 455.75C273.49 456.84 273.4 457.78 274.95 458.57C278.16 467.2 278.69 476.6 278.6 485.76C279.77 484.9 280.87 484.67 281.89 485.07C280.22 488.3 278.84 489.1 275.25 490.1C265.71 492.74 253.74 493.03 243.9 495.07C243.61 483.49 242.98 471.2 242.57 459.76L243.01 458.19L252.5 456.72L252.24 453.69C250.42 454.1 249.42 453.68 249.24 452.43C249.2 452.33 248.55 452.26 248.58 452.1C248.61 451.97 250.45 450.46 250.57 450.43C256.49 448.84 255.46 456.65 256.87 456.92C262.8 456.22 269.31 453.79 275.23 455.76L275.22 455.75Z" fill="#2C4582"/>
<path d="M275.22 455.751C277.36 456.121 279.68 458.881 280.37 460.921C281.49 464.211 283.71 480.201 283.08 483.291C282.87 484.321 282.12 484.591 281.88 485.061C275 492.291 277.67 480.801 277.2 476.081C276.94 473.461 275.03 461.431 274.16 459.801C273.55 458.651 272.01 457.821 271.22 456.741C270.58 455.191 274.58 455.641 275.21 455.751H275.22Z" fill="#1E3567"/>
<path d="M235.9 441.1C236.51 441.1 238.47 441 238.57 441.1C238.81 441.35 238.29 445.33 238.7 446.63C238.99 447.55 240.25 448.07 240.41 448.84C241.52 454.24 224.55 505.47 221.96 515.45C220.5 521.06 218.99 527.35 218.58 533.06L216.58 529.729C215.78 525.039 214.52 520.58 214.58 515.74C214.71 504.62 221.88 482.83 224.38 470.57C226.25 461.41 227.6 452.08 229.21 442.87C229.31 442.61 231.36 441.96 231.91 441.78C231.54 439.5 235.24 439.01 235.91 441.11L235.9 441.1Z" fill="#3D16A5"/>
<path d="M227.9 382.459C228.11 382.509 228.35 382.419 228.57 382.459L231.24 383.129C231.45 383.169 231.69 383.079 231.91 383.129C234.44 383.129 235.55 385.339 235.24 389.789C236.67 389.949 237.1 393.969 235.91 394.789C236.36 394.849 236.71 394.919 236.71 394.989C237.16 405.709 237.22 416.569 237.24 427.309L235.91 428.099C238.32 429.129 232.46 436.729 231.2 437.259C228.32 438.479 224.85 435.679 226.58 433.099C225.44 430.069 226.3 423.369 226.58 419.769C226.6 417.429 227.01 414.809 227.91 412.769C227.52 407.419 227.41 401.909 227.58 396.239C226.57 394.169 226.68 393.009 227.91 392.779C226.39 392.769 225.18 383.929 225.41 383.489C226.06 382.249 226.19 382.099 227.91 382.449L227.9 382.459Z" fill="#020102"/>
<path d="M227.9 382.461C225.59 382.191 226.96 383.181 227.03 384.321C227.18 386.791 227.9 390.881 227.9 392.791V412.781C227.9 414.161 226.69 418.261 226.57 419.781C225.87 417.601 227.24 414.261 227.24 412.781V396.121C227.24 392.851 210.23 385.921 206.8 383.911C201.84 381.001 195.58 376.571 191.92 372.141C191.3 371.391 190.3 371.061 190.59 369.811C197.32 371.921 203.53 375.581 210.22 377.831C215.89 379.731 222.06 381.231 227.9 382.471V382.461Z" fill="#3D16A7"/>
<path d="M235.23 383.791C235.46 383.891 236.2 383.541 236.45 383.881C238.56 402.071 238.69 420.411 238.58 438.771L235.9 441.091C233.82 441.061 233.63 441.191 231.9 441.761C230.11 441.061 224.4 443.191 223.95 441.361C223.77 440.621 224.89 436.561 225.15 435.311C225.41 434.061 224.55 432.711 226.57 433.101C227.17 434.701 228.6 437.031 230.57 436.121C231.56 435.661 235.9 428.801 235.9 428.111V394.791C235.9 393.941 235.31 391.451 235.23 389.791C234.76 387.861 234.66 385.641 235.23 383.791Z" fill="#E7ECF3"/>
<path d="M222.57 338.48C222.96 338.49 223.34 338.54 223.67 338.68C224.98 339.23 228.91 352.37 229.35 354.7L228.57 356.48C228.74 358.7 228.2 357.54 227.03 357.02C224.87 356.06 223.06 355.81 222.57 353.81C221.87 350.95 222.27 347.81 221.75 344.97C221.23 342.13 218.02 341.03 220.57 338.48C221.04 338.64 221.98 338.37 222.57 338.48Z" fill="#0A090B"/>
<path d="M230.57 353.14C231.29 354.63 231.73 356.18 231.9 357.8V358.47C230.61 358.19 229.88 359.94 228.57 356.47C226.41 350.75 225.23 343.44 222.57 338.48C221 335.55 223.06 335.69 223.24 335.15C226.87 340.45 228.41 347.09 230.57 353.14Z" fill="#E5E9EC"/>
<path d="M249.23 452.42C250.27 452.6 252.39 452.06 253.13 452.51C253.71 452.87 254.2 457.44 253.89 457.74C253.48 458.14 244.19 458.87 242.56 459.74C242.5 458.09 241.92 456.01 241.89 453.74C242.97 454.06 242.11 456.29 242.93 456.45C245.7 456.98 250.68 456.01 249.22 452.41L249.23 452.42Z" fill="#AD92D8"/>
<path d="M235.23 383.791C235.29 385.781 235.14 387.801 235.23 389.791C233.19 386.691 236.79 383.831 231.9 383.131C233.16 383.411 233.5 383.071 235.23 383.801V383.791Z" fill="#3D16A7"/>
<path d="M231.24 383.131L228.57 382.461C229.58 382.671 230.52 382.981 231.24 383.131Z" fill="#3D16A7"/>
<path d="M302.54 263.191C301.99 250.811 302.95 238.271 302.54 225.881H313.2V273.851C312.71 273.721 304.05 275.371 303.2 274.521C303.05 271.311 303.41 268.021 303.23 264.801C303.18 263.941 302.54 263.271 302.54 263.191Z" fill="#A88AE4"/>
<path d="M323.87 295.17H275.22V299.83H323.87V295.17Z" fill="#D0CEF9"/>
<path d="M323.86 315.16V319.16C320.98 318.66 318.26 319.7 315.56 319.85C305.75 320.4 286.84 320.99 277.52 319.85C274.36 319.47 275.28 317.88 275.22 315.15H323.87L323.86 315.16Z" fill="#CECFF9"/>
<path d="M323.86 305.17C324.72 311.71 321.59 309.22 317.56 309.14C305.34 308.88 291.9 310.53 280.19 309.87C275.99 309.63 274.49 309.92 275.22 305.17H323.87H323.86Z" fill="#CDCCF9"/>
<path d="M281.88 274.519V255.859H292.54V274.519C288.13 274.739 286.37 274.799 281.88 274.519Z" fill="#F8A73A"/>
<path d="M351.85 315.16C351.71 315.98 352.06 318.96 351.85 319.16C351.19 319.8 335.45 320.09 333.49 319.85C330.33 319.47 331.25 317.88 331.19 315.15H351.85V315.16Z" fill="#D0D1FA"/>
<path d="M343.85 229.88C344.03 230.99 342.22 230.61 341.5 230.56C337.89 230.34 332.53 230.53 333.86 225.87C334.79 224.89 342.02 229.88 343.85 229.87V229.88Z" fill="#D75DE9"/>
<path d="M650.39 345.81C649.29 345.63 647.15 344.04 645.73 343.81C645.49 339.89 648.88 337.01 651.4 334.48C652.87 335.66 649.94 338.63 652.06 338.49C655.74 338.24 660.55 336.2 663.39 333.83C667.7 338.79 654.09 346.42 650.39 345.81Z" fill="#F3B68A"/>
<path d="M585.09 336.489C580.9 350.069 579.26 364.349 578.43 378.469C577.28 397.949 578.34 418.209 580.43 437.769C576.72 437.469 572.57 438.489 569.1 437.099C569.2 411.049 568.32 384.429 569.1 358.479C569.31 351.409 569.83 344.209 570.43 337.159C575.78 339.379 578.84 338.679 583.78 336.189C584.61 335.769 585.18 333.919 585.09 336.499V336.489Z" fill="#E8F2FD"/>
<path fill-rule="evenodd" clip-rule="evenodd" d="M570.36 436.129C573.39 436.569 576.45 436.648 579.55 436.398L580.431 437.749C580.852 437.374 581.503 437.072 581.82 437.409C583.07 438.729 583.18 448.889 583.13 451.489C591.15 451.149 599.151 450.339 607.121 449.069L610.411 449.749C610.531 451.629 610.23 453.559 610.39 455.438C610.46 456.288 611.081 457.189 611.081 457.409V470.069C611.081 470.3 611.72 471.18 611.77 472.039C612.06 476.799 612.031 481.639 612.411 486.389C614.951 486.689 617.541 486.889 620.161 486.989C624.7 493.119 623.78 495.829 617.411 495.129C621.551 498.889 622.08 501.629 619.02 503.349V507.509C624.42 508.229 629.48 518.759 620.38 516.989C624.26 521.989 623.64 524.559 618.531 524.679C621.421 527.529 622.04 530.079 620.4 532.339L620.31 537.259C622.02 538.569 625.771 543.229 624.831 545.079C622.141 545.849 621.33 547.729 622.39 550.729C620.94 559.699 620.73 568.049 622.55 576.859C622.96 580.26 622.42 588.148 617.741 585.019C615.521 585.558 609.642 585.549 609.041 585.979C607.781 586.868 606.82 596.418 605.331 596.929C597.591 596.879 589.78 597.289 582.05 597.049C580.78 597.009 579.65 596.379 579.1 596.359C577.93 595.459 577.57 593.629 578.02 590.859C572.52 591.479 569.681 590.139 569.501 586.829C568.691 587.449 567.89 587.519 567.11 587.029C562.96 587.599 559.62 586.189 555.781 585.029L554.89 581.039C555.43 546.699 554.81 512.349 553.93 478.299C553.91 477.439 554.091 476.579 554.291 475.699C554.491 474.819 554.79 473.949 555.11 473.089C554.99 467.879 555.27 462.618 555.14 457.398C555.09 455.508 555.104 450.614 556.451 451.099L557.47 449.959L567.89 451.229C567.53 446.469 567.72 441.709 569.11 437.109L570.36 436.129ZM577.081 567.71C576.284 567.805 575.578 567.253 575.08 568.149C573.53 570.909 572.94 578.449 571.09 581.689H575.09C575.32 579.489 573.52 577.259 575.04 575.289C575.54 574.649 576.859 574.519 577.04 574.27C577.239 574 575.707 569.261 577.081 567.71C577.084 567.71 577.087 567.71 577.09 567.71V567.699C577.087 567.703 577.084 567.706 577.081 567.71Z" fill="#F7B939"/>
<path d="M80.6299 509.729C82.6999 508.039 85.3399 509.779 86.9999 509.669C87.9799 509.599 88.6399 508.399 89.4899 508.509C89.6999 508.539 93.2499 509.729 93.4999 509.849C94.4099 510.249 98.3699 517.759 99.9699 518.759C101.01 519.399 106.06 517.879 107.99 520.019L113.28 528.379H98.6299C97.5899 529.339 104.04 536.429 104.35 537.679C104.59 538.659 103.29 539.209 103.29 539.379V555.699C101.73 555.789 102.11 555.929 101.96 554.709C101.46 550.769 102.87 542.509 101.87 539.469C101.29 537.709 98.1699 538.509 96.6299 538.379C94.8099 528.009 88.4399 516.769 80.6399 509.729H80.6299Z" fill="#F9A536"/>
<path d="M506.45 213.221L507.12 237.211H436.48C439.33 228.611 446.06 220.591 451.47 213.221H506.45Z" fill="#CFCCFC"/>
<path d="M441.81 253.861C441.72 253.861 441.08 253.171 440.2 253.171C435.41 253.141 430.6 253.261 425.82 253.191C425.2 252.631 430.23 244.411 431.61 243.991C441.56 243.551 451.55 244.131 461.5 243.891C470.42 243.681 472.61 240.761 470.44 253.161C462.1 253.261 453.75 253.171 445.4 253.151C444.15 253.151 443.26 253.871 443.15 253.871C442.77 255.141 442.19 255.151 441.82 253.871L441.81 253.861Z" fill="#D2D0FB"/>
<path d="M443.15 253.859L443.82 257.859C441.13 257.389 438.39 259.229 435.82 258.199L441.81 253.869C442.25 253.869 442.7 253.869 443.14 253.869L443.15 253.859Z" fill="#D753E8"/>
<path d="M458.47 199.23L458.48 202.56L450.48 202.55L456.45 199.53L458.47 199.23Z" fill="#D144EA"/>
<path d="M153.27 215.881C153.31 214.331 153.23 212.761 153.27 211.211H198.59V240.531H153.67C152.94 240.621 153.33 239.681 153.27 239.201C153.67 231.751 153.98 223.301 153.27 215.881Z" fill="#AA90E3"/>
<path d="M163.93 175.24C169.88 175.65 176.1 175.94 181.92 175.24C183.25 175.28 184.59 175.21 185.92 175.24L185.79 205.41C175.16 205.79 164.54 205.72 153.94 205.22C152.98 204.26 153.16 203.19 153.27 201.89C153.82 193.12 154.04 184.24 153.94 175.24C157.26 175.22 160.61 175.27 163.94 175.24H163.93Z" fill="#F6B637"/>
<path d="M231.91 175.91H190.59V181.91H231.91V175.91Z" fill="#CECBFA"/>
<path d="M231.9 191.9C231.99 192 232.03 194.57 231.9 194.57H190.58C190.45 194.57 190.45 191.9 190.58 191.9H231.9Z" fill="#CECCFA"/>
<path d="M231.9 185.9C231.99 186 232.03 188.57 231.9 188.57H191.58C190.87 188.57 190.31 186.68 190.58 185.9H231.9Z" fill="#D0CFF9"/>
<path d="M231.9 233.21H203.91C203.95 232.36 203.69 231.25 204.2 230.5C205.21 229.02 226.74 230.33 230.23 229.88C232.12 230.03 232 231.61 231.9 233.21Z" fill="#CECCFB"/>
<path d="M231.9 211.221V214.551H203.91C204.02 213.901 203.74 212.081 203.91 211.901C204.04 211.771 207.38 211.221 207.57 211.221H231.89H231.9Z" fill="#D3D1FC"/>
<path d="M231.9 223.881C232.87 228.951 227.09 226.381 224.24 226.481C222.55 226.541 220.96 227.191 219.57 227.201C217.53 227.221 204.54 227.161 203.91 226.541C203.82 226.451 203.78 223.881 203.91 223.881H231.9Z" fill="#CBC9FB"/>
<path d="M231.9 236.539V239.199C222.52 239.719 213.39 240.009 203.91 239.199C204 238.719 203.78 236.539 203.91 236.539H231.9Z" fill="#D1D0FA"/>
<path d="M190.59 201.22C190.74 200.43 190.33 198.24 190.63 197.92C191.7 196.79 208.56 197 210.77 198.03C212.84 198.99 211.66 201.22 210.92 201.22H190.6H190.59Z" fill="#CBCAFB"/>
<path d="M231.9 217.881C231.81 218.361 232.03 220.551 231.9 220.551H203.91C203.78 220.551 203.78 217.881 203.91 217.881H231.9Z" fill="#CECBFB"/>
<path d="M153.94 205.22H185.93V175.24L185.97 205.6C181.73 205.6 155.57 206.84 153.94 205.22Z" fill="#ECECEC"/>
<path d="M153.27 201.89L153.94 175.24C153.71 183.35 154.23 191.53 153.99 199.64C153.95 200.88 153.29 201.68 153.27 201.89Z" fill="#ECECEC"/>
<path d="M153.27 239.201C152.48 233.031 153.08 222.441 153.27 215.881C154.37 216.571 153.94 218.411 153.95 219.541C154.01 224.871 154.02 230.221 153.95 235.551C153.94 236.681 154.38 238.511 153.27 239.211V239.201Z" fill="#ECECEC"/>
<path d="M181.92 175.241C181.23 176.341 179.39 175.911 178.26 175.921C173.67 175.971 168.27 176.421 163.92 175.241C169.88 175.191 175.96 175.061 181.91 175.241H181.92Z" fill="#ECECEC"/>
<path d="M659.06 501.06C658.23 500.92 655.27 501.27 655.06 501.06C653.67 499.65 656.5 495.42 659.06 496.4V501.06Z" fill="#F7B939"/>
<path d="M659.72 525.049C659.81 525.239 659.81 528.249 659.72 528.379C653.18 525.929 658.71 522.959 659.72 525.049Z" fill="#F7B939"/>
<path d="M635.06 516.389C634.62 517.849 636.29 522.249 633.73 521.709C634.17 520.249 632.5 515.849 635.06 516.389Z" fill="#F7B939"/>
<path d="M641.06 517.059C640.62 518.519 642.29 522.919 639.73 522.379C640.17 520.919 638.5 516.519 641.06 517.059Z" fill="#F7B939"/>
<path d="M637.06 539.05C636.62 540.51 638.29 544.91 635.73 544.37C636.17 542.91 634.5 538.51 637.06 539.05Z" fill="#F7B939"/>
<path d="M627.07 531.72C626.69 533.13 628.22 536.93 625.74 536.38C626.12 534.97 624.59 531.17 627.07 531.72Z" fill="#F7B939"/>
<path d="M646.4 517.721H645.07V521.711H646.4V517.721Z" fill="#F7B939"/>
<path d="M653.72 501.73L653.39 505.05C651.38 503.6 650.98 501.93 653.72 501.73Z" fill="#F7B939"/>
<path d="M636.4 546.381H635.07V549.041H636.4V546.381Z" fill="#F7B939"/>
<path d="M640.4 535.051L640.72 532.391C642.18 533.421 642.01 534.441 640.4 535.051Z" fill="#F7B939"/>
<path d="M632.4 569.03C633.13 569.76 631.8 571.08 631.07 570.36C630.34 569.64 631.67 568.31 632.4 569.03Z" fill="#F7B939"/>
<path d="M646.39 487.071C647.12 487.801 645.79 489.121 645.06 488.401C644.33 487.681 645.66 486.351 646.39 487.071Z" fill="#F7B939"/>
<path d="M661.72 523.05L659.72 522.72C660.61 521.46 661.16 521.59 661.72 523.05Z" fill="#F7B939"/>
<path d="M637.73 529.71H637.08C636.75 526.94 638.06 526.94 637.73 529.71Z" fill="#F7B939"/>
<path d="M644.39 535.04H643.74C643.41 532.27 644.72 532.27 644.39 535.04Z" fill="#F7B939"/>
<path d="M603.75 239.871L566.39 239.941C565.84 230.591 565.85 221.241 566.43 211.891C568.07 210.251 598.47 211.541 603.12 211.511L603.74 239.871H603.75Z" fill="#AA8FE4"/>
<path d="M645.06 175.91V181.91H604.08C602.65 181.91 602.65 175.91 604.08 175.91H645.06Z" fill="#CECCFB"/>
<path d="M645.06 223.881V227.211H609.41C608.54 227.211 608.19 224.751 608.41 223.881H645.06Z" fill="#D0CFFA"/>
<path d="M608.41 214.55C608.25 214.38 608.51 212.53 608.41 211.89C620.6 210.96 632.84 211.24 645.07 211.22V214.56C640.64 213.55 609.69 215.88 608.42 214.56L608.41 214.55Z" fill="#D3D2FB"/>
<path d="M645.06 185.9C645.15 186 645.19 188.57 645.06 188.57H604.08C602.93 188.57 602.93 185.9 604.08 185.9H645.06Z" fill="#D0D0FA"/>
<path d="M645.06 236.54C645.22 236.71 644.95 238.56 645.06 239.2C632.85 239.53 620.65 240.44 608.4 239.2V236.54C612.83 237.55 643.78 235.22 645.05 236.54H645.06Z" fill="#D2D1FA"/>
<path d="M645.06 191.9C645.15 192 645.19 194.57 645.06 194.57H604.08C602.89 194.57 603.59 191.9 603.75 191.9H645.07H645.06Z" fill="#CFCEF9"/>
<path d="M645.06 233.211H608.41C608.28 233.211 608.5 231.021 608.41 230.551C613 231.491 643.35 228.421 644.77 230.501C645.28 231.251 645.02 232.351 645.06 233.211Z" fill="#D0CFFA"/>
<path d="M645.06 217.881C644.97 218.361 645.19 220.551 645.06 220.551H608.41C608.28 220.551 608.28 217.881 608.41 217.881H645.06Z" fill="#D0CDFA"/>
<path d="M603.75 201.22V197.88C610.66 197.78 617.5 197.78 624.41 197.88V201.22H603.75Z" fill="#CBCBFC"/>
<path d="M653.06 168.58L605.08 167.91C620.53 167.96 636 167.91 651.46 167.87C652.33 167.76 652.54 168.06 653.06 168.57V168.58Z" fill="#ECECEC"/>
<path d="M566.43 211.891V239.881H603.75L566.39 240.261C565.64 236.591 565.05 213.291 566.43 211.901V211.891Z" fill="#ECECEC"/>
<path d="M113.95 455.75C116.55 456.47 118.89 458 122.36 458.33C126.27 458.71 134.13 457.24 136.63 460.06C138.8 462.52 142.17 479.53 139.65 481.78C137.49 483.71 123.84 483.26 120.26 483.1C111.88 482.72 99.39 481.38 91.29 479.41C89.95 479.09 83.13 476.98 82.72 476.33C81.73 474.76 85.72 469.73 86.76 468.2C89.24 464.57 97.97 452.72 102.16 452.62C104.1 452.57 111.38 455.04 113.96 455.75H113.95Z" fill="#F6DCC1"/>
<path d="M151.27 475.079V475.729C148.5 476.059 148.5 474.749 151.27 475.079Z" fill="#FCECDA"/>
<path d="M283.71 183.339C287.51 182.669 289.71 186.58 287.22 189.57C282.38 195.37 276.78 184.569 283.71 183.339Z" fill="#F3C340"/>
<path d="M296.36 183.341C300.69 182.681 302.35 189.711 297.51 190.561C291.66 191.591 291.43 184.091 296.36 183.341Z" fill="#2FC358"/>
<path d="M271.66 183.38C275.97 182.99 276.75 190.68 272.12 191.09C267.81 191.48 267.03 183.79 271.66 183.38Z" fill="#F2433A"/>
<path d="M151.71 161.341C154.37 160.661 154.72 164.581 152.86 165.181C149.44 166.291 149.05 162.021 151.71 161.341Z" fill="#D44C65"/>
<path d="M162.69 164.48C162.28 163.82 162.73 162.16 162.6 161.25L166.59 162.27C167.29 164.65 163.59 165.95 162.69 164.48Z" fill="#18C562"/>
<path d="M156.66 161.31C159.19 159.5 161.5 164.53 158.91 165.24C156.52 165.9 155.27 162.3 156.66 161.31Z" fill="#C6944A"/>
<path d="M593.08 76.6301H575.09C574.55 71.1101 578 68.9801 582.42 66.9701C576.77 64.5701 577.39 56.5901 584.09 56.5801C590.79 56.5701 590.84 64.3901 585.77 66.9701C590.19 69.0001 593.63 71.1101 593.09 76.6301H593.08Z" fill="#FDFDFE"/>
<path d="M222.58 325.15V331.15C221.06 332.67 204.95 325.92 205.92 321.15C210.65 324.8 216.79 325.42 222.58 325.14V325.15Z" fill="#E29561"/>
<path d="M226.57 315.831C228.52 317.891 222.86 319.291 221.25 318.491C220.56 316.351 226.36 315.601 226.57 315.831Z" fill="#F7EDE1"/>
<path d="M515.12 142.591C513.35 139.311 520.43 135.421 520.44 134.931C520.44 134.641 517.53 133.321 518.59 129.741C520.4 123.651 530.24 129.771 523.79 135.251C527.37 135.841 529.63 138.981 529.12 142.591H515.13H515.12Z" fill="#FDFCFE"/>
<path d="M494.46 58.6402H482.47C481.38 55.4702 486.1 53.8202 486.46 53.3002C486.86 52.7302 485.3 51.2002 485.13 50.2802C483.99 44.0302 493.32 44.7302 491.68 50.1802C491.4 51.1202 489.8 52.0802 489.81 52.3202C489.81 52.7302 495.75 55.9102 494.46 58.6502V58.6402Z" fill="#FAF8FB"/>
<path d="M578.43 161.24V164.58C572.89 165.48 573.44 160.21 578.43 161.24Z" fill="#33B360"/>
<path d="M572.42 164.57L568.43 162.92L571.41 161.25L572.42 164.57Z" fill="#D29136"/>
<path d="M564.19 161.3C566.26 160.95 567.22 164.76 564.68 165.2C562.61 165.55 561.65 161.74 564.19 161.3Z" fill="#D3504C"/>
<path d="M231.9 357.81L230.57 353.15C231.06 354.52 232.39 355.84 231.9 357.81Z" fill="#4C1BCB"/>
<path d="M337.18 543.04L339.19 549.03L327.19 551.69C329.38 549.24 332.89 545.51 335.51 543.69C336.07 543.3 336.17 542.76 337.18 543.04Z" fill="#F6AE4D"/>
<path d="M280.54 537.711L284.54 547.7C284.17 548.09 276.02 541.84 275.91 541.31C275.65 540.07 280.06 537.271 280.54 537.711Z" fill="#F5AD48"/>
<path d="M307.2 537.04C306.55 536.89 303.94 536.92 303.2 537.04C303.87 535.95 306.57 535.97 307.2 537.04Z" fill="#F9B83B"/>
<path d="M303.65 543.801C305.64 543.241 307.11 544.091 308.15 545.751C314.68 557.421 322.63 568.441 329.06 580.151C331.52 584.641 336.32 590.971 328.22 591.711C316.95 592.741 292.71 592.821 281.5 591.711C278.61 591.431 277.41 590.781 278 587.501C286 572.641 294.66 558.081 303.64 543.781L303.65 543.801Z" fill="#F9B83B"/>
<path d="M308.54 554.37V567.36C308.54 567.57 307.93 568.5 307.85 569.33C307.6 571.73 308.97 575.85 305.51 576.36C304.65 576.49 303.37 576.49 302.84 575.72C302.6 575.38 301.93 568.62 301.85 567.38C301.75 565.66 301.63 555 301.97 554.46C302.68 553.33 307.21 553.72 308.54 554.36V554.37Z" fill="#FEFDFC"/>
<path d="M303.68 579.819C309.93 577.949 310.51 587.319 304.93 587.009C300.71 586.769 300.95 580.639 303.68 579.819Z" fill="#FAF9F4"/>
<path fill-rule="evenodd" clip-rule="evenodd" d="M387.01 76.1306C423.55 71.1407 424.64 127.55 396.78 131.2C359.401 136.1 358.36 80.0414 387.01 76.1306ZM391.593 88.4217C385.944 88.4217 381.365 95.2442 381.365 103.66C381.365 112.075 385.944 118.898 391.593 118.898C397.241 118.898 401.82 112.075 401.82 103.66C401.82 95.2442 397.241 88.4217 391.593 88.4217Z" fill="#F6A236"/>
</g>
<defs>
<clipPath id="clip0_3645_147678">
<rect width="795" height="619" fill="white"/>
</clipPath>
</defs>
</svg>
